<svg width="42" height="42" viewBox="0 0 42 42" fill="none" xmlns="http://www.w3.org/2000/svg">
<circle cx="21" cy="21" r="21" transform="rotate(180 21 21)" fill="white"/>
<g clip-path="url(#clip0)">
<path d="M15.8348 22.957L25.3994 32.5415C25.7595 32.9023 26.3438 32.9029 26.7045 32.5429C27.0653 32.1829 27.0659 31.5986 26.7059 31.2378L17.1406 21.6525C16.7808 21.2927 16.7808 20.7073 17.1413 20.3467L26.7059 10.7622C27.0659 10.4014 27.0653 9.8171 26.7045 9.45709C26.5244 9.27732 26.2885 9.18748 26.0527 9.18748C25.8162 9.18748 25.5797 9.27783 25.3994 9.45848L15.8355 19.0423C14.756 20.1218 14.756 21.8782 15.8348 22.957Z" fill="black"/>
</g>
<defs>
<clipPath id="clip0">
<rect width="23.625" height="23.625" fill="white" transform="translate(32.8125 32.8125) rotate(180)"/>
</clipPath>
</defs>
</svg>
