<svg width="42" height="42" viewBox="0 0 42 42" fill="none" xmlns="http://www.w3.org/2000/svg">
<circle cx="21" cy="21" r="21" fill="white"/>
<g clip-path="url(#clip0)">
<path d="M26.1652 19.043L16.6005 9.45847C16.2404 9.09768 15.6561 9.09712 15.2954 9.45713C14.9346 9.81713 14.934 10.4014 15.2941 10.7622L24.8594 20.3475C25.2192 20.7073 25.2192 21.2927 24.8587 21.6533L15.2941 31.2378C14.934 31.5986 14.9346 32.1829 15.2954 32.5429C15.4755 32.7227 15.7115 32.8125 15.9473 32.8125C16.1838 32.8125 16.4203 32.7222 16.6005 32.5415L26.1645 22.9577C27.244 21.8782 27.244 20.1218 26.1652 19.043Z" fill="black"/>
</g>
<defs>
<clipPath id="clip0">
<rect width="23.625" height="23.625" fill="white" transform="translate(9.1875 9.1875)"/>
</clipPath>
</defs>
</svg>
